<?xml version="1.0" encoding="UTF-8"?>
<!DOCTYPE svg PUBLIC "-//W3C//DTD SVG 1.1//EN" "http://www.w3.org/Graphics/SVG/1.1/DTD/svg11.dtd">
<svg version="1.2" width="20mm" height="20mm" viewBox="0 0 2000 2000" preserveAspectRatio="xMidYMid" fill-rule="evenodd" stroke-width="28.222" stroke-linejoin="round" xmlns="http://www.w3.org/2000/svg" xmlns:ooo="http://xml.openoffice.org/svg/export" xmlns:xlink="http://www.w3.org/1999/xlink" xmlns:presentation="http://sun.com/xmlns/staroffice/presentation" xmlns:smil="http://www.w3.org/2001/SMIL20/" xmlns:anim="urn:oasis:names:tc:opendocument:xmlns:animation:1.0" xmlns:svg="urn:oasis:names:tc:opendocument:xmlns:svg-compatible:1.0" xml:space="preserve">
 <defs class="ClipPathGroup">
  <clipPath id="presentation_clip_path" clipPathUnits="userSpaceOnUse">
   <rect x="0" y="0" width="2000" height="2000"/>
  </clipPath>
  <clipPath id="presentation_clip_path_shrink" clipPathUnits="userSpaceOnUse">
   <rect x="2" y="2" width="1996" height="1996"/>
  </clipPath>
 </defs>
 <defs class="TextShapeIndex">
  <g ooo:slide="id1" ooo:id-list="id3 id4 id5 id6 id7 id8 id9 id10 id11"/>
 </defs>
 <defs class="EmbeddedBulletChars">
  <g id="bullet-char-template-57356" transform="scale(0.00048828125,-0.00048828125)">
   <path d="M 580,1141 L 1163,571 580,0 -4,571 580,1141 Z"/>
  </g>
  <g id="bullet-char-template-57354" transform="scale(0.00048828125,-0.00048828125)">
   <path d="M 8,1128 L 1137,1128 1137,0 8,0 8,1128 Z"/>
  </g>
  <g id="bullet-char-template-10146" transform="scale(0.00048828125,-0.00048828125)">
   <path d="M 174,0 L 602,739 174,1481 1456,739 174,0 Z M 1358,739 L 309,1346 659,739 1358,739 Z"/>
  </g>
  <g id="bullet-char-template-10132" transform="scale(0.00048828125,-0.00048828125)">
   <path d="M 2015,739 L 1276,0 717,0 1260,543 174,543 174,936 1260,936 717,1481 1274,1481 2015,739 Z"/>
  </g>
  <g id="bullet-char-template-10007" transform="scale(0.00048828125,-0.00048828125)">
   <path d="M 0,-2 C -7,14 -16,27 -25,37 L 356,567 C 262,823 215,952 215,954 215,979 228,992 255,992 264,992 276,990 289,987 310,991 331,999 354,1012 L 381,999 492,748 772,1049 836,1024 860,1049 C 881,1039 901,1025 922,1006 886,937 835,863 770,784 769,783 710,716 594,584 L 774,223 C 774,196 753,168 711,139 L 727,119 C 717,90 699,76 672,76 641,76 570,178 457,381 L 164,-76 C 142,-110 111,-127 72,-127 30,-127 9,-110 8,-76 1,-67 -2,-52 -2,-32 -2,-23 -1,-13 0,-2 Z"/>
  </g>
  <g id="bullet-char-template-10004" transform="scale(0.00048828125,-0.00048828125)">
   <path d="M 285,-33 C 182,-33 111,30 74,156 52,228 41,333 41,471 41,549 55,616 82,672 116,743 169,778 240,778 293,778 328,747 346,684 L 369,508 C 377,444 397,411 428,410 L 1163,1116 C 1174,1127 1196,1133 1229,1133 1271,1133 1292,1118 1292,1087 L 1292,965 C 1292,929 1282,901 1262,881 L 442,47 C 390,-6 338,-33 285,-33 Z"/>
  </g>
  <g id="bullet-char-template-9679" transform="scale(0.00048828125,-0.00048828125)">
   <path d="M 813,0 C 632,0 489,54 383,161 276,268 223,411 223,592 223,773 276,916 383,1023 489,1130 632,1184 813,1184 992,1184 1136,1130 1245,1023 1353,916 1407,772 1407,592 1407,412 1353,268 1245,161 1136,54 992,0 813,0 Z"/>
  </g>
  <g id="bullet-char-template-8226" transform="scale(0.00048828125,-0.00048828125)">
   <path d="M 346,457 C 273,457 209,483 155,535 101,586 74,649 74,723 74,796 101,859 155,911 209,963 273,989 346,989 419,989 480,963 531,910 582,859 608,796 608,723 608,648 583,586 532,535 482,483 420,457 346,457 Z"/>
  </g>
  <g id="bullet-char-template-8211" transform="scale(0.00048828125,-0.00048828125)">
   <path d="M -4,459 L 1135,459 1135,606 -4,606 -4,459 Z"/>
  </g>
  <g id="bullet-char-template-61548" transform="scale(0.00048828125,-0.00048828125)">
   <path d="M 173,740 C 173,903 231,1043 346,1159 462,1274 601,1332 765,1332 928,1332 1067,1274 1183,1159 1299,1043 1357,903 1357,740 1357,577 1299,437 1183,322 1067,206 928,148 765,148 601,148 462,206 346,322 231,437 173,577 173,740 Z"/>
  </g>
 </defs>
 <g>
  <g id="id2" class="Master_Slide">
   <g id="bg-id2" class="Background"/>
   <g id="bo-id2" class="BackgroundObjects"/>
  </g>
 </g>
 <g class="SlideGroup">
  <g>
   <g id="container-id1">
    <g id="id1" class="Slide" clip-path="url(#presentation_clip_path)">
     <g class="Page">
      <g class="com.sun.star.drawing.PolyPolygonShape">
       <g id="id3">
        <rect class="BoundingBox" stroke="none" fill="none" x="30" y="873" width="1947" height="864"/>
        <g>
         <defs>
          <linearGradient id="gradient1" x1="815" y1="1961" x2="1191" y2="647" gradientUnits="userSpaceOnUse">
           <stop offset="0" style="stop-color:rgb(180,120,4)"/>
           <stop offset="1" style="stop-color:rgb(129,55,9)"/>
          </linearGradient>
         </defs>
         <path style="fill:url(#gradient1)" d="M 30,1735 L 1733,1735 1976,873 942,873 30,1735 Z"/>
        </g>
       </g>
      </g>
      <g class="com.sun.star.drawing.PolyPolygonShape">
       <g id="id4">
        <rect class="BoundingBox" stroke="none" fill="none" x="573" y="207" width="709" height="907"/>
        <g>
         <defs>
          <linearGradient id="gradient2" x1="646" y1="172" x2="1209" y2="1148" gradientUnits="userSpaceOnUse">
           <stop offset="0" style="stop-color:rgb(119,188,101)"/>
           <stop offset="1" style="stop-color:rgb(18,118,34)"/>
          </linearGradient>
         </defs>
         <path style="fill:url(#gradient2)" d="M 924,1108 L 924,858 903,791 811,693 697,626 624,548 578,412 584,315 603,266 676,361 735,496 794,580 897,691 911,548 1000,548 989,683 1065,534 1135,372 1176,291 1219,245 1276,212 1265,315 1227,466 1176,577 1089,677 1016,766 989,842 984,950 992,1064 1003,1104 924,1108 Z"/>
        </g>
        <path fill="none" stroke="rgb(34,75,18)" stroke-width="10" stroke-linejoin="round" d="M 924,1108 L 924,858 903,791 811,693 697,626 624,548 578,412 584,315 603,266 676,361 735,496 794,580 897,691 911,548 1000,548 989,683 1065,534 1135,372 1176,291 1219,245 1276,212 1265,315 1227,466 1176,577 1089,677 1016,766 989,842 984,950 992,1064 1003,1104 924,1108 Z"/>
       </g>
      </g>
      <g class="com.sun.star.drawing.CustomShape">
       <g id="id5">
        <rect class="BoundingBox" stroke="none" fill="none" x="737" y="174" width="462" height="462"/>
        <g>
         <defs>
          <linearGradient id="gradient3" x1="813" y1="137" x2="1122" y2="672" gradientUnits="userSpaceOnUse">
           <stop offset="0" style="stop-color:rgb(255,255,0)"/>
           <stop offset="1" style="stop-color:rgb(255,128,0)"/>
          </linearGradient>
         </defs>
         <path style="fill:url(#gradient3)" d="M 967,286 L 955,287 943,288 931,291 920,295 910,300 900,306 891,312 883,320 875,328 869,337 863,347 858,357 854,368 851,380 850,392 849,404 850,416 851,428 854,440 858,451 863,461 869,471 875,480 883,488 891,496 900,502 910,508 920,513 931,517 943,520 955,521 967,522 979,521 991,520 1003,517 1014,513 1024,508 1034,502 1043,496 1051,488 1059,480 1065,471 1071,461 1076,451 1080,440 1083,428 1084,416 1085,404 1084,392 1083,380 1080,368 1076,357 1071,347 1065,337 1059,328 1051,320 1043,312 1034,306 1024,300 1014,295 1003,291 991,288 979,287 967,286 Z M 742,404 L 742,398 743,392 744,386 746,380 748,374 750,369 753,364 756,359 760,354 764,350 768,346 772,343 777,339 782,337 787,334 793,332 791,328 789,324 788,320 787,316 786,311 785,307 784,302 784,297 784,289 786,281 787,274 790,267 793,260 797,254 801,248 806,243 811,238 817,234 823,230 830,227 837,224 844,223 852,221 860,221 865,221 870,222 874,223 879,224 883,225 887,226 891,228 895,230 897,224 900,219 902,214 906,209 909,205 913,201 917,197 922,193 927,190 932,187 937,185 943,183 949,181 955,180 961,179 967,179 973,179 979,180 985,181 991,183 997,185 1002,187 1007,190 1012,193 1017,197 1021,201 1025,205 1028,209 1032,214 1034,219 1037,224 1039,230 1043,228 1047,226 1051,225 1055,224 1060,223 1064,222 1069,221 1074,221 1082,221 1090,223 1097,224 1104,227 1111,230 1117,234 1123,238 1128,243 1133,248 1137,254 1141,260 1144,267 1147,274 1148,281 1150,289 1150,297 1150,302 1149,307 1148,311 1147,316 1146,320 1145,324 1143,328 1141,332 1147,334 1152,337 1157,339 1162,343 1166,346 1171,350 1175,354 1178,359 1182,364 1184,369 1187,374 1189,380 1191,386 1192,392 1193,398 1193,404 1193,410 1192,416 1191,422 1189,428 1187,434 1184,439 1182,444 1178,449 1175,454 1171,458 1166,462 1162,465 1157,469 1152,471 1147,474 1141,476 1143,480 1145,484 1146,488 1147,492 1148,497 1149,501 1150,506 1150,511 1150,519 1148,527 1147,534 1144,541 1141,548 1137,554 1133,560 1128,565 1123,570 1117,574 1111,578 1104,581 1097,584 1090,585 1082,587 1074,587 1069,587 1064,586 1060,585 1055,584 1051,583 1047,582 1043,580 1039,578 1037,584 1034,589 1032,594 1028,599 1025,603 1021,608 1017,612 1012,615 1007,619 1002,621 997,624 991,626 985,628 979,629 973,630 967,630 961,630 955,629 949,628 943,626 937,624 932,621 927,619 922,615 917,612 913,608 909,603 906,599 902,594 900,589 897,584 895,578 891,580 887,582 883,583 879,584 874,585 870,586 865,587 860,587 852,587 844,585 837,584 830,581 823,578 817,574 811,570 806,565 801,560 797,554 793,548 790,541 787,534 786,527 784,519 784,511 784,506 785,501 786,497 787,492 788,488 789,484 791,480 793,476 787,474 782,471 777,469 772,465 768,462 764,458 760,454 756,449 753,444 750,439 748,434 746,428 744,422 743,416 742,410 742,404 Z"/>
        </g>
        <path fill="none" stroke="rgb(255,0,0)" stroke-width="10" stroke-linejoin="round" d="M 967,286 C 900,286 849,337 849,404 849,471 900,522 967,522 1034,522 1085,471 1085,404 1085,337 1034,286 967,286 Z"/>
        <path fill="none" stroke="rgb(255,0,0)" stroke-width="10" stroke-linejoin="round" d="M 742,404 C 742,370 763,342 793,332 788,322 784,310 784,297 784,254 817,221 860,221 873,221 885,225 895,230 905,200 933,179 967,179 1001,179 1029,200 1039,230 1049,225 1061,221 1074,221 1117,221 1150,254 1150,297 1150,310 1146,322 1141,332 1171,342 1193,370 1193,404 1193,438 1171,466 1141,476 1146,486 1150,498 1150,511 1150,554 1117,587 1074,587 1061,587 1049,583 1039,578 1029,608 1001,630 967,630 933,630 905,608 895,578 885,583 873,587 860,587 817,587 784,554 784,511 784,498 788,486 793,476 763,466 742,438 742,404 Z"/>
       </g>
      </g>
      <g class="com.sun.star.drawing.CustomShape">
       <g id="id6">
        <rect class="BoundingBox" stroke="none" fill="none" x="478" y="1129" width="576" height="289"/>
        <g>
         <defs>
          <linearGradient id="gradient4" x1="634" y1="1046" x2="896" y2="1500" gradientUnits="userSpaceOnUse">
           <stop offset="0" style="stop-color:rgb(255,255,0)"/>
           <stop offset="1" style="stop-color:rgb(255,128,0)"/>
          </linearGradient>
         </defs>
         <path style="fill:url(#gradient4)" d="M 765,1200 L 735,1201 720,1203 706,1206 693,1208 681,1212 670,1216 660,1221 650,1226 642,1231 634,1237 628,1244 623,1251 622,1254 620,1258 619,1261 618,1265 617,1269 617,1273 617,1277 618,1281 619,1284 620,1288 622,1291 623,1295 628,1302 634,1308 642,1314 650,1319 660,1324 670,1329 681,1333 693,1337 706,1340 720,1342 735,1344 765,1345 795,1344 810,1342 824,1340 837,1337 849,1333 860,1329 871,1324 880,1319 888,1314 896,1308 902,1302 907,1295 908,1291 910,1288 911,1284 912,1281 913,1277 913,1273 913,1269 912,1265 911,1261 910,1258 908,1254 907,1251 902,1244 896,1237 888,1231 880,1226 871,1221 860,1216 849,1212 837,1208 824,1206 810,1203 795,1201 765,1200 Z M 483,1273 L 483,1269 484,1265 486,1261 488,1258 490,1254 493,1251 497,1247 501,1245 505,1242 510,1239 515,1237 521,1234 533,1231 547,1228 545,1226 542,1223 541,1222 540,1221 540,1219 539,1218 538,1216 538,1215 537,1213 537,1212 536,1210 536,1209 536,1207 536,1206 536,1204 536,1201 537,1199 538,1197 539,1194 540,1192 543,1188 547,1184 552,1180 557,1176 563,1173 570,1170 577,1168 585,1165 593,1164 602,1162 611,1161 630,1160 642,1160 654,1161 665,1163 675,1165 678,1162 681,1158 684,1155 688,1152 693,1149 697,1147 703,1145 708,1142 721,1139 734,1136 749,1135 765,1134 781,1135 796,1136 809,1139 822,1142 827,1145 833,1147 837,1149 842,1152 846,1155 849,1158 852,1162 855,1165 865,1163 876,1161 888,1160 900,1160 919,1161 928,1162 937,1164 945,1165 953,1168 960,1170 967,1173 973,1176 978,1180 983,1184 987,1188 990,1192 991,1194 992,1197 993,1199 994,1201 994,1204 994,1206 994,1207 994,1209 994,1210 993,1212 993,1213 992,1215 992,1216 991,1218 990,1219 990,1221 989,1222 988,1223 985,1226 983,1228 997,1231 1009,1234 1015,1237 1020,1239 1025,1242 1030,1245 1034,1247 1037,1251 1041,1254 1043,1258 1045,1261 1047,1265 1048,1269 1048,1273 1048,1277 1047,1281 1045,1284 1043,1288 1041,1291 1037,1295 1034,1298 1030,1301 1025,1303 1020,1306 1015,1308 1009,1311 997,1314 983,1317 985,1319 988,1322 989,1323 990,1324 990,1326 991,1327 992,1329 992,1330 993,1332 993,1333 994,1335 994,1336 994,1338 994,1339 994,1341 994,1344 993,1346 992,1348 991,1351 990,1353 987,1357 983,1361 978,1365 973,1369 967,1372 960,1375 953,1377 945,1380 937,1381 928,1383 919,1384 900,1385 888,1385 876,1384 865,1382 855,1380 852,1383 849,1387 846,1390 842,1393 837,1396 833,1398 827,1401 822,1403 809,1407 796,1410 781,1411 765,1412 749,1411 734,1410 721,1407 708,1403 703,1401 697,1398 693,1396 688,1393 684,1390 681,1387 678,1383 675,1380 665,1382 654,1384 642,1385 630,1385 611,1384 602,1383 593,1381 585,1380 577,1377 570,1375 563,1372 557,1369 552,1365 547,1361 543,1357 540,1353 539,1351 538,1348 537,1346 536,1344 536,1341 536,1339 536,1338 536,1336 536,1335 537,1333 537,1332 538,1330 538,1329 539,1327 540,1326 540,1324 541,1323 542,1322 545,1319 547,1317 533,1314 521,1311 515,1308 510,1306 505,1303 501,1301 497,1298 493,1295 490,1291 488,1288 486,1284 484,1281 483,1277 483,1273 Z"/>
        </g>
        <path fill="none" stroke="rgb(255,0,0)" stroke-width="10" stroke-linejoin="round" d="M 765,1200 C 681,1200 617,1231 617,1273 617,1314 681,1345 765,1345 849,1345 913,1314 913,1273 913,1231 849,1200 765,1200 Z"/>
        <path fill="none" stroke="rgb(255,0,0)" stroke-width="10" stroke-linejoin="round" d="M 483,1273 C 483,1251 509,1234 547,1228 540,1222 536,1214 536,1206 536,1180 577,1160 630,1160 647,1160 662,1162 675,1165 687,1146 722,1134 765,1134 808,1134 843,1146 855,1165 868,1162 883,1160 900,1160 953,1160 994,1180 994,1206 994,1214 990,1222 983,1228 1021,1234 1048,1251 1048,1273 1048,1294 1021,1311 983,1317 990,1323 994,1331 994,1339 994,1365 953,1385 900,1385 883,1385 868,1383 855,1380 843,1399 808,1412 765,1412 722,1412 687,1399 675,1380 662,1383 647,1385 630,1385 577,1385 536,1365 536,1339 536,1331 540,1323 547,1317 509,1311 483,1294 483,1273 Z"/>
       </g>
      </g>
      <g class="com.sun.star.drawing.PolyPolygonShape">
       <g id="id7">
        <rect class="BoundingBox" stroke="none" fill="none" x="153" y="791" width="1151" height="920"/>
        <g>
         <defs>
          <linearGradient id="gradient5" x1="389" y1="664" x2="1067" y2="1838" gradientUnits="userSpaceOnUse">
           <stop offset="0" style="stop-color:rgb(119,188,101)"/>
           <stop offset="1" style="stop-color:rgb(18,118,34)"/>
          </linearGradient>
         </defs>
         <path style="fill:url(#gradient5)" d="M 1271,1567 L 979,1469 892,1468 741,1539 617,1648 496,1703 319,1705 208,1659 159,1618 299,1568 480,1551 602,1514 773,1436 611,1363 647,1257 800,1323 656,1175 495,1027 417,946 381,877 365,797 481,850 642,954 751,1059 834,1202 908,1324 986,1386 1110,1434 1247,1470 1298,1472 1271,1567 Z"/>
        </g>
        <path fill="none" stroke="rgb(34,75,18)" stroke-width="10" stroke-linejoin="round" d="M 1271,1567 L 979,1469 892,1468 741,1539 617,1648 496,1703 319,1705 208,1659 159,1618 299,1568 480,1551 602,1514 773,1436 611,1363 647,1257 800,1323 656,1175 495,1027 417,946 381,877 365,797 481,850 642,954 751,1059 834,1202 908,1324 986,1386 1110,1434 1247,1470 1298,1472 1271,1567 Z"/>
       </g>
      </g>
      <g class="com.sun.star.drawing.PolyPolygonShape">
       <g id="id8">
        <rect class="BoundingBox" stroke="none" fill="none" x="990" y="660" width="897" height="574"/>
        <g>
         <defs>
          <linearGradient id="gradient6" x1="1205" y1="544" x2="1670" y2="1350" gradientUnits="userSpaceOnUse">
           <stop offset="0" style="stop-color:rgb(119,188,101)"/>
           <stop offset="1" style="stop-color:rgb(18,118,34)"/>
          </linearGradient>
         </defs>
         <path style="fill:url(#gradient6)" d="M 1863,1228 L 1631,1136 1563,1126 1447,1151 1355,1203 1263,1223 1125,1204 1036,1165 995,1134 1103,1120 1244,1130 1338,1121 1468,1093 1339,1032 1362,972 1485,1029 1366,924 1233,818 1169,761 1137,716 1121,666 1214,711 1345,791 1435,866 1505,960 1569,1041 1633,1087 1732,1130 1840,1166 1880,1173 1863,1228 Z"/>
        </g>
        <path fill="none" stroke="rgb(34,75,18)" stroke-width="10" stroke-linejoin="round" d="M 1863,1228 L 1631,1136 1563,1126 1447,1151 1355,1203 1263,1223 1125,1204 1036,1165 995,1134 1103,1120 1244,1130 1338,1121 1468,1093 1339,1032 1362,972 1485,1029 1366,924 1233,818 1169,761 1137,716 1121,666 1214,711 1345,791 1435,866 1505,960 1569,1041 1633,1087 1732,1130 1840,1166 1880,1173 1863,1228 Z"/>
       </g>
      </g>
      <g class="com.sun.star.drawing.CustomShape">
       <g id="id9">
        <rect class="BoundingBox" stroke="none" fill="none" x="1449" y="886" width="462" height="233"/>
        <g>
         <defs>
          <linearGradient id="gradient7" x1="1575" y1="822" x2="1784" y2="1183" gradientUnits="userSpaceOnUse">
           <stop offset="0" style="stop-color:rgb(255,255,0)"/>
           <stop offset="1" style="stop-color:rgb(255,128,0)"/>
          </linearGradient>
         </defs>
         <path style="fill:url(#gradient7)" d="M 1679,944 L 1655,945 1643,947 1632,948 1622,951 1612,954 1603,957 1595,961 1587,965 1581,969 1575,974 1570,979 1566,984 1565,987 1563,990 1562,993 1562,996 1561,999 1561,1002 1561,1005 1562,1008 1562,1011 1563,1014 1565,1017 1566,1020 1570,1025 1575,1030 1581,1035 1587,1039 1595,1043 1603,1047 1612,1050 1622,1053 1632,1056 1643,1057 1655,1059 1679,1060 1703,1059 1715,1057 1726,1056 1736,1053 1746,1050 1755,1047 1763,1043 1771,1039 1777,1035 1783,1030 1788,1025 1792,1020 1793,1017 1795,1014 1796,1011 1796,1008 1797,1005 1797,1002 1797,999 1796,996 1796,993 1795,990 1793,987 1792,984 1788,979 1783,974 1777,969 1771,965 1763,961 1755,957 1746,954 1736,951 1726,948 1715,947 1703,945 1679,944 Z M 1454,1002 L 1454,999 1455,996 1456,993 1458,990 1460,987 1462,985 1465,982 1468,980 1472,978 1476,976 1480,974 1484,972 1494,969 1505,967 1503,965 1501,963 1500,961 1499,959 1498,958 1498,956 1497,955 1497,954 1496,953 1496,952 1496,950 1496,949 1496,947 1496,945 1497,943 1498,942 1498,940 1499,938 1502,935 1505,932 1509,929 1513,926 1518,924 1523,921 1529,919 1535,917 1542,916 1549,915 1556,914 1572,913 1582,913 1591,914 1595,914 1599,915 1603,916 1607,917 1609,914 1612,912 1614,909 1618,907 1621,905 1625,902 1629,901 1634,899 1644,896 1655,894 1667,892 1679,892 1691,892 1703,894 1714,896 1724,899 1729,901 1733,902 1737,905 1740,907 1744,909 1746,912 1749,914 1751,917 1755,916 1759,915 1763,914 1767,914 1776,913 1786,913 1802,914 1809,915 1816,916 1823,917 1829,919 1835,921 1840,924 1845,926 1849,929 1853,932 1856,935 1859,938 1860,940 1860,942 1861,943 1862,945 1862,947 1862,949 1862,950 1862,952 1862,953 1861,954 1861,955 1860,956 1860,958 1859,959 1858,961 1857,963 1855,965 1853,967 1864,969 1874,972 1878,974 1883,976 1887,978 1890,980 1894,982 1896,985 1899,987 1901,990 1903,993 1904,996 1905,999 1905,1000 1905,1002 1905,1004 1905,1005 1904,1008 1903,1011 1901,1014 1899,1017 1896,1019 1894,1022 1890,1024 1887,1026 1883,1028 1878,1030 1874,1032 1864,1035 1853,1037 1855,1039 1857,1041 1858,1043 1859,1045 1860,1046 1860,1048 1861,1049 1861,1050 1862,1051 1862,1052 1862,1054 1862,1055 1862,1057 1862,1059 1861,1061 1860,1062 1860,1064 1859,1066 1856,1069 1853,1072 1849,1075 1845,1078 1840,1081 1835,1083 1829,1085 1823,1087 1816,1088 1809,1089 1802,1090 1786,1091 1776,1091 1767,1090 1763,1090 1759,1089 1755,1088 1751,1087 1749,1090 1746,1092 1744,1095 1740,1097 1737,1100 1733,1102 1729,1104 1724,1106 1714,1109 1703,1111 1691,1112 1679,1113 1667,1112 1655,1111 1644,1109 1634,1106 1629,1104 1625,1102 1621,1100 1618,1097 1614,1095 1612,1092 1609,1090 1607,1087 1603,1088 1599,1089 1595,1090 1591,1090 1582,1091 1572,1091 1556,1090 1549,1089 1542,1088 1535,1087 1529,1085 1523,1083 1518,1081 1513,1078 1509,1075 1505,1072 1502,1069 1499,1066 1498,1064 1498,1062 1497,1061 1496,1059 1496,1057 1496,1055 1496,1054 1496,1052 1496,1051 1497,1050 1497,1049 1498,1048 1498,1046 1499,1045 1500,1043 1501,1041 1503,1039 1505,1037 1494,1035 1484,1032 1480,1030 1476,1028 1472,1026 1468,1024 1465,1022 1462,1019 1460,1017 1458,1014 1456,1011 1455,1008 1454,1005 1454,1002 Z"/>
        </g>
        <path fill="none" stroke="rgb(255,0,0)" stroke-width="10" stroke-linejoin="round" d="M 1679,944 C 1612,944 1561,969 1561,1002 1561,1035 1612,1060 1679,1060 1746,1060 1797,1035 1797,1002 1797,969 1746,944 1679,944 Z"/>
        <path fill="none" stroke="rgb(255,0,0)" stroke-width="10" stroke-linejoin="round" d="M 1454,1002 C 1454,985 1475,972 1505,967 1500,962 1496,956 1496,949 1496,929 1529,913 1572,913 1585,913 1597,914 1607,917 1617,902 1645,892 1679,892 1713,892 1741,902 1751,917 1761,914 1773,913 1786,913 1829,913 1862,929 1862,949 1862,956 1858,962 1853,967 1883,972 1905,985 1905,1002 1905,1019 1883,1032 1853,1037 1858,1042 1862,1048 1862,1055 1862,1075 1829,1091 1786,1091 1773,1091 1761,1090 1751,1087 1741,1102 1713,1113 1679,1113 1645,1113 1617,1102 1607,1087 1597,1090 1585,1091 1572,1091 1529,1091 1496,1075 1496,1055 1496,1048 1500,1042 1505,1037 1475,1032 1454,1019 1454,1002 Z"/>
       </g>
      </g>
      <g class="com.sun.star.drawing.PolyPolygonShape">
       <g id="id10">
        <rect class="BoundingBox" stroke="none" fill="none" x="705" y="792" width="1200" height="835"/>
        <g>
         <defs>
          <linearGradient id="gradient8" x1="977" y1="643" x2="1631" y2="1775" gradientUnits="userSpaceOnUse">
           <stop offset="0" style="stop-color:rgb(119,188,101)"/>
           <stop offset="1" style="stop-color:rgb(18,118,34)"/>
          </linearGradient>
         </defs>
         <path style="fill:url(#gradient8)" d="M 711,1512 L 1003,1414 1073,1362 1151,1215 1183,1053 1247,936 1386,828 1503,797 1567,800 1485,924 1351,1047 1276,1150 1187,1316 1361,1276 1396,1382 1233,1422 1438,1454 1655,1474 1767,1491 1837,1525 1898,1579 1774,1606 1582,1621 1432,1603 1280,1539 1147,1487 1047,1484 919,1521 789,1575 747,1604 711,1512 Z"/>
        </g>
        <path fill="none" stroke="rgb(34,75,18)" stroke-width="10" stroke-linejoin="round" d="M 711,1512 L 1003,1414 1073,1362 1151,1215 1183,1053 1247,936 1386,828 1503,797 1567,800 1485,924 1351,1047 1276,1150 1187,1316 1361,1276 1396,1382 1233,1422 1438,1454 1655,1474 1767,1491 1837,1525 1898,1579 1774,1606 1582,1621 1432,1603 1280,1539 1147,1487 1047,1484 919,1521 789,1575 747,1604 711,1512 Z"/>
       </g>
      </g>
      <g class="com.sun.star.drawing.CustomShape">
       <g id="id11">
        <rect class="BoundingBox" stroke="none" fill="none" x="1043" y="1197" width="577" height="205"/>
        <g>
         <defs>
          <linearGradient id="gradient9" x1="1219" y1="1103" x2="1444" y2="1494" gradientUnits="userSpaceOnUse">
           <stop offset="0" style="stop-color:rgb(255,255,0)"/>
           <stop offset="1" style="stop-color:rgb(255,128,0)"/>
          </linearGradient>
         </defs>
         <path style="fill:url(#gradient9)" d="M 1331,1247 L 1301,1248 1272,1251 1247,1255 1236,1258 1226,1262 1216,1265 1208,1269 1200,1273 1194,1278 1189,1283 1188,1285 1186,1287 1185,1290 1184,1293 1183,1295 1183,1298 1183,1301 1184,1303 1185,1306 1186,1309 1188,1311 1189,1313 1194,1318 1200,1323 1208,1327 1216,1331 1226,1334 1236,1338 1247,1341 1272,1345 1301,1348 1331,1349 1361,1348 1390,1345 1415,1341 1426,1338 1437,1334 1446,1331 1454,1327 1462,1323 1468,1318 1473,1313 1474,1311 1476,1309 1477,1306 1478,1303 1479,1301 1479,1298 1479,1295 1478,1293 1477,1290 1476,1287 1474,1285 1473,1283 1468,1278 1462,1273 1454,1269 1446,1265 1437,1262 1426,1258 1415,1255 1390,1251 1361,1248 1331,1247 Z M 1049,1298 L 1049,1297 1049,1295 1050,1294 1050,1293 1051,1291 1052,1290 1054,1287 1056,1285 1059,1283 1063,1280 1067,1278 1071,1276 1076,1275 1087,1271 1099,1269 1113,1267 1111,1265 1108,1264 1107,1263 1106,1262 1106,1261 1105,1260 1104,1259 1104,1258 1103,1257 1103,1256 1102,1255 1102,1254 1102,1253 1102,1252 1102,1250 1102,1249 1103,1247 1104,1245 1105,1244 1106,1242 1109,1239 1113,1237 1118,1234 1123,1232 1129,1229 1136,1227 1143,1225 1159,1222 1177,1221 1196,1220 1208,1220 1220,1221 1226,1221 1231,1222 1236,1223 1241,1224 1244,1222 1247,1219 1250,1217 1254,1215 1259,1213 1263,1211 1274,1208 1287,1206 1300,1204 1315,1202 1331,1202 1347,1202 1362,1204 1375,1206 1388,1208 1399,1211 1403,1213 1408,1215 1412,1217 1415,1219 1418,1222 1421,1224 1426,1223 1431,1222 1436,1221 1442,1221 1454,1220 1466,1220 1485,1221 1503,1222 1519,1225 1526,1227 1533,1229 1539,1232 1544,1234 1549,1237 1553,1239 1556,1242 1557,1244 1558,1245 1559,1247 1560,1249 1560,1250 1560,1252 1560,1253 1560,1254 1560,1255 1559,1256 1559,1257 1558,1258 1558,1259 1557,1260 1556,1261 1556,1262 1555,1263 1554,1264 1551,1265 1549,1267 1563,1269 1575,1271 1586,1275 1591,1276 1596,1278 1600,1280 1603,1283 1607,1285 1609,1287 1611,1290 1612,1291 1613,1293 1613,1294 1614,1295 1614,1297 1614,1298 1614,1299 1614,1301 1613,1302 1613,1303 1612,1305 1611,1306 1609,1309 1607,1311 1603,1313 1600,1316 1596,1318 1591,1320 1586,1321 1575,1325 1563,1327 1549,1329 1551,1331 1554,1332 1555,1333 1556,1334 1556,1335 1557,1336 1558,1337 1558,1338 1559,1339 1559,1340 1560,1341 1560,1342 1560,1343 1560,1344 1560,1346 1560,1347 1559,1349 1558,1351 1557,1352 1556,1354 1553,1357 1549,1359 1544,1362 1539,1364 1533,1367 1526,1369 1519,1371 1503,1374 1485,1375 1466,1376 1454,1376 1442,1375 1436,1375 1431,1374 1426,1373 1421,1372 1418,1374 1415,1377 1412,1379 1408,1381 1403,1383 1399,1385 1388,1388 1375,1391 1362,1393 1347,1395 1331,1395 1315,1395 1300,1393 1287,1391 1274,1388 1263,1385 1259,1383 1254,1381 1250,1379 1247,1377 1244,1374 1241,1372 1236,1373 1231,1374 1226,1375 1220,1375 1208,1376 1196,1376 1177,1375 1159,1374 1143,1371 1136,1369 1129,1367 1123,1364 1118,1362 1113,1359 1109,1357 1106,1354 1105,1352 1104,1351 1103,1349 1102,1347 1102,1346 1102,1344 1102,1343 1102,1342 1102,1341 1103,1340 1103,1339 1104,1338 1104,1337 1105,1336 1106,1335 1106,1334 1107,1333 1108,1332 1111,1331 1113,1329 1099,1327 1087,1325 1076,1321 1071,1320 1067,1318 1063,1316 1059,1313 1056,1311 1054,1309 1052,1306 1051,1305 1050,1303 1050,1302 1049,1301 1049,1299 1049,1298 Z"/>
        </g>
        <path fill="none" stroke="rgb(255,0,0)" stroke-width="10" stroke-linejoin="round" d="M 1331,1247 C 1247,1247 1183,1269 1183,1298 1183,1327 1247,1349 1331,1349 1415,1349 1479,1327 1479,1298 1479,1269 1415,1247 1331,1247 Z"/>
        <path fill="none" stroke="rgb(255,0,0)" stroke-width="10" stroke-linejoin="round" d="M 1049,1298 C 1049,1283 1075,1271 1113,1267 1106,1263 1102,1258 1102,1252 1102,1234 1143,1220 1196,1220 1213,1220 1228,1221 1241,1224 1253,1211 1288,1202 1331,1202 1374,1202 1409,1211 1421,1224 1434,1221 1449,1220 1466,1220 1519,1220 1560,1234 1560,1252 1560,1258 1556,1263 1549,1267 1587,1271 1614,1283 1614,1298 1614,1313 1587,1325 1549,1329 1556,1333 1560,1338 1560,1344 1560,1362 1519,1376 1466,1376 1449,1376 1434,1375 1421,1372 1409,1385 1374,1395 1331,1395 1288,1395 1253,1385 1241,1372 1228,1375 1213,1376 1196,1376 1143,1376 1102,1362 1102,1344 1102,1338 1106,1333 1113,1329 1075,1325 1049,1313 1049,1298 Z"/>
       </g>
      </g>
     </g>
    </g>
   </g>
  </g>
 </g>
</svg>