<?xml version="1.0" encoding="UTF-8"?>
<!DOCTYPE svg PUBLIC "-//W3C//DTD SVG 1.1//EN" "http://www.w3.org/Graphics/SVG/1.1/DTD/svg11.dtd">
<svg version="1.2" width="20mm" height="20mm" viewBox="0 0 2000 2000" preserveAspectRatio="xMidYMid" fill-rule="evenodd" stroke-width="28.222" stroke-linejoin="round" xmlns="http://www.w3.org/2000/svg" xmlns:ooo="http://xml.openoffice.org/svg/export" xmlns:xlink="http://www.w3.org/1999/xlink" xmlns:presentation="http://sun.com/xmlns/staroffice/presentation" xmlns:smil="http://www.w3.org/2001/SMIL20/" xmlns:anim="urn:oasis:names:tc:opendocument:xmlns:animation:1.0" xmlns:svg="urn:oasis:names:tc:opendocument:xmlns:svg-compatible:1.0" xml:space="preserve">
 <defs class="ClipPathGroup">
  <clipPath id="presentation_clip_path" clipPathUnits="userSpaceOnUse">
   <rect x="0" y="0" width="2000" height="2000"/>
  </clipPath>
  <clipPath id="presentation_clip_path_shrink" clipPathUnits="userSpaceOnUse">
   <rect x="2" y="2" width="1996" height="1996"/>
  </clipPath>
 </defs>
 <defs class="TextShapeIndex">
  <g ooo:slide="id1" ooo:id-list="id3 id4 id5 id6 id7 id8 id9 id10 id11 id12"/>
 </defs>
 <defs class="EmbeddedBulletChars">
  <g id="bullet-char-template-57356" transform="scale(0.00048828125,-0.00048828125)">
   <path d="M 580,1141 L 1163,571 580,0 -4,571 580,1141 Z"/>
  </g>
  <g id="bullet-char-template-57354" transform="scale(0.00048828125,-0.00048828125)">
   <path d="M 8,1128 L 1137,1128 1137,0 8,0 8,1128 Z"/>
  </g>
  <g id="bullet-char-template-10146" transform="scale(0.00048828125,-0.00048828125)">
   <path d="M 174,0 L 602,739 174,1481 1456,739 174,0 Z M 1358,739 L 309,1346 659,739 1358,739 Z"/>
  </g>
  <g id="bullet-char-template-10132" transform="scale(0.00048828125,-0.00048828125)">
   <path d="M 2015,739 L 1276,0 717,0 1260,543 174,543 174,936 1260,936 717,1481 1274,1481 2015,739 Z"/>
  </g>
  <g id="bullet-char-template-10007" transform="scale(0.00048828125,-0.00048828125)">
   <path d="M 0,-2 C -7,14 -16,27 -25,37 L 356,567 C 262,823 215,952 215,954 215,979 228,992 255,992 264,992 276,990 289,987 310,991 331,999 354,1012 L 381,999 492,748 772,1049 836,1024 860,1049 C 881,1039 901,1025 922,1006 886,937 835,863 770,784 769,783 710,716 594,584 L 774,223 C 774,196 753,168 711,139 L 727,119 C 717,90 699,76 672,76 641,76 570,178 457,381 L 164,-76 C 142,-110 111,-127 72,-127 30,-127 9,-110 8,-76 1,-67 -2,-52 -2,-32 -2,-23 -1,-13 0,-2 Z"/>
  </g>
  <g id="bullet-char-template-10004" transform="scale(0.00048828125,-0.00048828125)">
   <path d="M 285,-33 C 182,-33 111,30 74,156 52,228 41,333 41,471 41,549 55,616 82,672 116,743 169,778 240,778 293,778 328,747 346,684 L 369,508 C 377,444 397,411 428,410 L 1163,1116 C 1174,1127 1196,1133 1229,1133 1271,1133 1292,1118 1292,1087 L 1292,965 C 1292,929 1282,901 1262,881 L 442,47 C 390,-6 338,-33 285,-33 Z"/>
  </g>
  <g id="bullet-char-template-9679" transform="scale(0.00048828125,-0.00048828125)">
   <path d="M 813,0 C 632,0 489,54 383,161 276,268 223,411 223,592 223,773 276,916 383,1023 489,1130 632,1184 813,1184 992,1184 1136,1130 1245,1023 1353,916 1407,772 1407,592 1407,412 1353,268 1245,161 1136,54 992,0 813,0 Z"/>
  </g>
  <g id="bullet-char-template-8226" transform="scale(0.00048828125,-0.00048828125)">
   <path d="M 346,457 C 273,457 209,483 155,535 101,586 74,649 74,723 74,796 101,859 155,911 209,963 273,989 346,989 419,989 480,963 531,910 582,859 608,796 608,723 608,648 583,586 532,535 482,483 420,457 346,457 Z"/>
  </g>
  <g id="bullet-char-template-8211" transform="scale(0.00048828125,-0.00048828125)">
   <path d="M -4,459 L 1135,459 1135,606 -4,606 -4,459 Z"/>
  </g>
  <g id="bullet-char-template-61548" transform="scale(0.00048828125,-0.00048828125)">
   <path d="M 173,740 C 173,903 231,1043 346,1159 462,1274 601,1332 765,1332 928,1332 1067,1274 1183,1159 1299,1043 1357,903 1357,740 1357,577 1299,437 1183,322 1067,206 928,148 765,148 601,148 462,206 346,322 231,437 173,577 173,740 Z"/>
  </g>
 </defs>
 <g>
  <g id="id2" class="Master_Slide">
   <g id="bg-id2" class="Background"/>
   <g id="bo-id2" class="BackgroundObjects"/>
  </g>
 </g>
 <g class="SlideGroup">
  <g>
   <g id="container-id1">
    <g id="id1" class="Slide" clip-path="url(#presentation_clip_path)">
     <g class="Page">
      <g class="com.sun.star.drawing.PolyPolygonShape">
       <g id="id3">
        <rect class="BoundingBox" stroke="none" fill="none" x="29" y="873" width="1948" height="864"/>
        <g>
         <defs>
          <linearGradient id="gradient1" x1="815" y1="1961" x2="1191" y2="647" gradientUnits="userSpaceOnUse">
           <stop offset="0" style="stop-color:rgb(180,120,4)"/>
           <stop offset="1" style="stop-color:rgb(129,55,9)"/>
          </linearGradient>
         </defs>
         <path style="fill:url(#gradient1)" d="M 30,1735 L 1733,1735 1976,873 942,873 30,1735 Z"/>
        </g>
       </g>
      </g>
      <g class="com.sun.star.drawing.PolyPolygonShape">
       <g id="id4">
        <rect class="BoundingBox" stroke="none" fill="none" x="897" y="693" width="150" height="351"/>
        <g>
         <defs>
          <linearGradient id="gradient2" x1="880" y1="710" x2="1062" y2="1026" gradientUnits="userSpaceOnUse">
           <stop offset="0" style="stop-color:rgb(119,188,101)"/>
           <stop offset="1" style="stop-color:rgb(18,118,34)"/>
          </linearGradient>
         </defs>
         <path style="fill:url(#gradient2)" d="M 971,1038 L 971,943 967,918 948,881 926,855 911,826 902,774 903,737 907,719 921,755 933,806 945,838 966,880 968,826 982,729 984,877 999,820 1013,759 1021,728 1030,711 1041,698 1039,737 1031,795 1021,837 1004,875 989,908 984,937 983,978 984,1021 987,1037 971,1038 Z"/>
        </g>
        <path fill="none" stroke="rgb(34,75,18)" stroke-width="10" stroke-linejoin="round" d="M 971,1038 L 971,943 967,918 948,881 926,855 911,826 902,774 903,737 907,719 921,755 933,806 945,838 966,880 968,826 982,729 984,877 999,820 1013,759 1021,728 1030,711 1041,698 1039,737 1031,795 1021,837 1004,875 989,908 984,937 983,978 984,1021 987,1037 971,1038 Z"/>
       </g>
      </g>
      <g class="com.sun.star.drawing.PolyPolygonShape">
       <g id="id5">
        <rect class="BoundingBox" stroke="none" fill="none" x="643" y="829" width="204" height="483"/>
        <g>
         <defs>
          <linearGradient id="gradient3" x1="618" y1="852" x2="871" y2="1289" gradientUnits="userSpaceOnUse">
           <stop offset="0" style="stop-color:rgb(119,188,101)"/>
           <stop offset="1" style="stop-color:rgb(18,118,34)"/>
          </linearGradient>
         </defs>
         <path style="fill:url(#gradient3)" d="M 744,1306 L 744,1175 738,1139 713,1088 681,1053 661,1012 648,940 650,889 655,863 675,913 691,984 708,1029 736,1087 740,1012 759,877 762,1083 783,1004 802,919 813,877 825,853 841,835 838,889 828,969 813,1027 789,1080 769,1126 762,1166 760,1223 762,1283 766,1304 744,1306 Z"/>
        </g>
        <path fill="none" stroke="rgb(34,75,18)" stroke-width="10" stroke-linejoin="round" d="M 744,1306 L 744,1175 738,1139 713,1088 681,1053 661,1012 648,940 650,889 655,863 675,913 691,984 708,1029 736,1087 740,1012 759,877 762,1083 783,1004 802,919 813,877 825,853 841,835 838,889 828,969 813,1027 789,1080 769,1126 762,1166 760,1223 762,1283 766,1304 744,1306 Z"/>
       </g>
      </g>
      <g class="com.sun.star.drawing.PolyPolygonShape">
       <g id="id6">
        <rect class="BoundingBox" stroke="none" fill="none" x="339" y="935" width="286" height="683"/>
        <g>
         <defs>
          <linearGradient id="gradient4" x1="302" y1="965" x2="661" y2="1588" gradientUnits="userSpaceOnUse">
           <stop offset="0" style="stop-color:rgb(119,188,101)"/>
           <stop offset="1" style="stop-color:rgb(18,118,34)"/>
          </linearGradient>
         </defs>
         <path style="fill:url(#gradient4)" d="M 480,1612 L 480,1425 472,1374 436,1302 391,1251 362,1193 344,1091 346,1018 354,981 382,1053 406,1154 429,1217 470,1300 475,1193 503,1001 506,1294 536,1182 564,1061 580,1001 597,966 619,941 615,1018 600,1132 580,1215 545,1290 517,1356 506,1413 504,1494 507,1579 511,1609 480,1612 Z"/>
        </g>
        <path fill="none" stroke="rgb(34,75,18)" stroke-width="10" stroke-linejoin="round" d="M 480,1612 L 480,1425 472,1374 436,1302 391,1251 362,1193 344,1091 346,1018 354,981 382,1053 406,1154 429,1217 470,1300 475,1193 503,1001 506,1294 536,1182 564,1061 580,1001 597,966 619,941 615,1018 600,1132 580,1215 545,1290 517,1356 506,1413 504,1494 507,1579 511,1609 480,1612 Z"/>
       </g>
      </g>
      <g class="com.sun.star.drawing.PolyPolygonShape">
       <g id="id7">
        <rect class="BoundingBox" stroke="none" fill="none" x="1311" y="687" width="179" height="357"/>
        <g>
         <defs>
          <linearGradient id="gradient5" x1="1304" y1="699" x2="1496" y2="1031" gradientUnits="userSpaceOnUse">
           <stop offset="0" style="stop-color:rgb(119,188,101)"/>
           <stop offset="1" style="stop-color:rgb(18,118,34)"/>
          </linearGradient>
         </defs>
         <path style="fill:url(#gradient5)" d="M 1399,1038 L 1399,942 1394,915 1372,878 1345,852 1327,822 1316,769 1317,732 1322,713 1339,750 1354,802 1368,834 1393,877 1396,822 1413,723 1415,874 1433,816 1450,754 1460,723 1470,705 1484,692 1481,732 1472,790 1460,833 1439,872 1421,906 1415,935 1414,977 1416,1021 1418,1036 1399,1038 Z"/>
        </g>
        <path fill="none" stroke="rgb(34,75,18)" stroke-width="10" stroke-linejoin="round" d="M 1399,1038 L 1399,942 1394,915 1372,878 1345,852 1327,822 1316,769 1317,732 1322,713 1339,750 1354,802 1368,834 1393,877 1396,822 1413,723 1415,874 1433,816 1450,754 1460,723 1470,705 1484,692 1481,732 1472,790 1460,833 1439,872 1421,906 1415,935 1414,977 1416,1021 1418,1036 1399,1038 Z"/>
       </g>
      </g>
      <g class="com.sun.star.drawing.PolyPolygonShape">
       <g id="id8">
        <rect class="BoundingBox" stroke="none" fill="none" x="1122" y="830" width="198" height="482"/>
        <g>
         <defs>
          <linearGradient id="gradient6" x1="1095" y1="853" x2="1346" y2="1287" gradientUnits="userSpaceOnUse">
           <stop offset="0" style="stop-color:rgb(119,188,101)"/>
           <stop offset="1" style="stop-color:rgb(18,118,34)"/>
          </linearGradient>
         </defs>
         <path style="fill:url(#gradient6)" d="M 1220,1306 L 1220,1175 1214,1139 1190,1088 1159,1053 1139,1012 1127,940 1129,889 1134,863 1153,914 1169,984 1185,1029 1213,1087 1216,1012 1235,877 1237,1083 1257,1004 1276,919 1287,877 1299,853 1314,835 1311,889 1301,969 1287,1027 1264,1080 1244,1126 1237,1166 1236,1223 1238,1283 1241,1304 1220,1306 Z"/>
        </g>
        <path fill="none" stroke="rgb(34,75,18)" stroke-width="10" stroke-linejoin="round" d="M 1220,1306 L 1220,1175 1214,1139 1190,1088 1159,1053 1139,1012 1127,940 1129,889 1134,863 1153,914 1169,984 1185,1029 1213,1087 1216,1012 1235,877 1237,1083 1257,1004 1276,919 1287,877 1299,853 1314,835 1311,889 1301,969 1287,1027 1264,1080 1244,1126 1237,1166 1236,1223 1238,1283 1241,1304 1220,1306 Z"/>
       </g>
      </g>
      <g class="com.sun.star.drawing.PolyPolygonShape">
       <g id="id9">
        <rect class="BoundingBox" stroke="none" fill="none" x="803" y="929" width="322" height="689"/>
        <g>
         <defs>
          <linearGradient id="gradient7" x1="778" y1="952" x2="1149" y2="1595" gradientUnits="userSpaceOnUse">
           <stop offset="0" style="stop-color:rgb(119,188,101)"/>
           <stop offset="1" style="stop-color:rgb(18,118,34)"/>
          </linearGradient>
         </defs>
         <path style="fill:url(#gradient7)" d="M 962,1612 L 962,1423 953,1372 912,1299 861,1248 829,1189 808,1086 811,1013 819,976 851,1048 878,1150 904,1213 950,1297 957,1189 988,996 991,1291 1025,1178 1056,1056 1074,995 1094,960 1119,935 1114,1013 1097,1127 1074,1211 1036,1287 1003,1354 991,1411 989,1492 992,1579 997,1609 962,1612 Z"/>
        </g>
        <path fill="none" stroke="rgb(34,75,18)" stroke-width="10" stroke-linejoin="round" d="M 962,1612 L 962,1423 953,1372 912,1299 861,1248 829,1189 808,1086 811,1013 819,976 851,1048 878,1150 904,1213 950,1297 957,1189 988,996 991,1291 1025,1178 1056,1056 1074,995 1094,960 1119,935 1114,1013 1097,1127 1074,1211 1036,1287 1003,1354 991,1411 989,1492 992,1579 997,1609 962,1612 Z"/>
       </g>
      </g>
      <g class="com.sun.star.drawing.PolyPolygonShape">
       <g id="id10">
        <rect class="BoundingBox" stroke="none" fill="none" x="1643" y="685" width="179" height="359"/>
        <g>
         <defs>
          <linearGradient id="gradient8" x1="1636" y1="697" x2="1829" y2="1031" gradientUnits="userSpaceOnUse">
           <stop offset="0" style="stop-color:rgb(119,188,101)"/>
           <stop offset="1" style="stop-color:rgb(18,118,34)"/>
          </linearGradient>
         </defs>
         <path style="fill:url(#gradient8)" d="M 1731,1038 L 1731,941 1726,915 1704,877 1677,851 1659,821 1648,768 1649,730 1654,711 1671,748 1686,800 1700,833 1725,876 1728,821 1745,721 1747,873 1765,815 1782,752 1792,721 1802,703 1816,690 1813,730 1804,789 1792,832 1771,871 1753,905 1747,935 1746,977 1748,1021 1750,1036 1731,1038 Z"/>
        </g>
        <path fill="none" stroke="rgb(34,75,18)" stroke-width="10" stroke-linejoin="round" d="M 1731,1038 L 1731,941 1726,915 1704,877 1677,851 1659,821 1648,768 1649,730 1654,711 1671,748 1686,800 1700,833 1725,876 1728,821 1745,721 1747,873 1765,815 1782,752 1792,721 1802,703 1816,690 1813,730 1804,789 1792,832 1771,871 1753,905 1747,935 1746,977 1748,1021 1750,1036 1731,1038 Z"/>
       </g>
      </g>
      <g class="com.sun.star.drawing.PolyPolygonShape">
       <g id="id11">
        <rect class="BoundingBox" stroke="none" fill="none" x="1506" y="829" width="241" height="483"/>
        <g>
         <defs>
          <linearGradient id="gradient9" x1="1496" y1="844" x2="1757" y2="1297" gradientUnits="userSpaceOnUse">
           <stop offset="0" style="stop-color:rgb(119,188,101)"/>
           <stop offset="1" style="stop-color:rgb(18,118,34)"/>
          </linearGradient>
         </defs>
         <path style="fill:url(#gradient9)" d="M 1625,1306 L 1625,1175 1618,1139 1588,1088 1550,1053 1526,1012 1511,940 1513,889 1519,863 1543,913 1563,984 1582,1029 1616,1087 1621,1012 1644,877 1646,1083 1671,1004 1695,919 1708,877 1722,853 1741,835 1738,889 1725,969 1708,1027 1679,1080 1655,1126 1646,1166 1645,1223 1647,1283 1651,1304 1625,1306 Z"/>
        </g>
        <path fill="none" stroke="rgb(34,75,18)" stroke-width="10" stroke-linejoin="round" d="M 1625,1306 L 1625,1175 1618,1139 1588,1088 1550,1053 1526,1012 1511,940 1513,889 1519,863 1543,913 1563,984 1582,1029 1616,1087 1621,1012 1644,877 1646,1083 1671,1004 1695,919 1708,877 1722,853 1741,835 1738,889 1725,969 1708,1027 1679,1080 1655,1126 1646,1166 1645,1223 1647,1283 1651,1304 1625,1306 Z"/>
       </g>
      </g>
      <g class="com.sun.star.drawing.PolyPolygonShape">
       <g id="id12">
        <rect class="BoundingBox" stroke="none" fill="none" x="1271" y="905" width="355" height="713"/>
        <g>
         <defs>
          <linearGradient id="gradient10" x1="1253" y1="924" x2="1642" y2="1599" gradientUnits="userSpaceOnUse">
           <stop offset="0" style="stop-color:rgb(119,188,101)"/>
           <stop offset="1" style="stop-color:rgb(18,118,34)"/>
          </linearGradient>
         </defs>
         <path style="fill:url(#gradient10)" d="M 1446,1612 L 1446,1417 1436,1364 1391,1288 1334,1235 1299,1174 1276,1068 1279,992 1289,953 1324,1028 1353,1133 1382,1199 1433,1286 1440,1174 1474,974 1478,1280 1515,1163 1550,1036 1570,973 1591,937 1619,911 1614,992 1595,1110 1570,1197 1527,1275 1491,1345 1478,1404 1476,1488 1479,1577 1485,1609 1446,1612 Z"/>
        </g>
        <path fill="none" stroke="rgb(34,75,18)" stroke-width="10" stroke-linejoin="round" d="M 1446,1612 L 1446,1417 1436,1364 1391,1288 1334,1235 1299,1174 1276,1068 1279,992 1289,953 1324,1028 1353,1133 1382,1199 1433,1286 1440,1174 1474,974 1478,1280 1515,1163 1550,1036 1570,973 1591,937 1619,911 1614,992 1595,1110 1570,1197 1527,1275 1491,1345 1478,1404 1476,1488 1479,1577 1485,1609 1446,1612 Z"/>
       </g>
      </g>
     </g>
    </g>
   </g>
  </g>
 </g>
</svg>