<?xml version="1.0" encoding="UTF-8"?>
<!DOCTYPE svg PUBLIC "-//W3C//DTD SVG 1.1//EN" "http://www.w3.org/Graphics/SVG/1.1/DTD/svg11.dtd">
<svg version="1.2" width="20mm" height="20mm" viewBox="0 0 2000 2000" preserveAspectRatio="xMidYMid" fill-rule="evenodd" stroke-width="28.222" stroke-linejoin="round" xmlns="http://www.w3.org/2000/svg" xmlns:ooo="http://xml.openoffice.org/svg/export" xmlns:xlink="http://www.w3.org/1999/xlink" xmlns:presentation="http://sun.com/xmlns/staroffice/presentation" xmlns:smil="http://www.w3.org/2001/SMIL20/" xmlns:anim="urn:oasis:names:tc:opendocument:xmlns:animation:1.0" xmlns:svg="urn:oasis:names:tc:opendocument:xmlns:svg-compatible:1.0" xml:space="preserve">
 <defs class="ClipPathGroup">
  <clipPath id="presentation_clip_path" clipPathUnits="userSpaceOnUse">
   <rect x="0" y="0" width="2000" height="2000"/>
  </clipPath>
  <clipPath id="presentation_clip_path_shrink" clipPathUnits="userSpaceOnUse">
   <rect x="2" y="2" width="1996" height="1996"/>
  </clipPath>
 </defs>
 <defs class="TextShapeIndex">
  <g ooo:slide="id1" ooo:id-list="id3 id4 id5 id6 id7 id8 id9 id10"/>
 </defs>
 <defs class="EmbeddedBulletChars">
  <g id="bullet-char-template-57356" transform="scale(0.00048828125,-0.00048828125)">
   <path d="M 580,1141 L 1163,571 580,0 -4,571 580,1141 Z"/>
  </g>
  <g id="bullet-char-template-57354" transform="scale(0.00048828125,-0.00048828125)">
   <path d="M 8,1128 L 1137,1128 1137,0 8,0 8,1128 Z"/>
  </g>
  <g id="bullet-char-template-10146" transform="scale(0.00048828125,-0.00048828125)">
   <path d="M 174,0 L 602,739 174,1481 1456,739 174,0 Z M 1358,739 L 309,1346 659,739 1358,739 Z"/>
  </g>
  <g id="bullet-char-template-10132" transform="scale(0.00048828125,-0.00048828125)">
   <path d="M 2015,739 L 1276,0 717,0 1260,543 174,543 174,936 1260,936 717,1481 1274,1481 2015,739 Z"/>
  </g>
  <g id="bullet-char-template-10007" transform="scale(0.00048828125,-0.00048828125)">
   <path d="M 0,-2 C -7,14 -16,27 -25,37 L 356,567 C 262,823 215,952 215,954 215,979 228,992 255,992 264,992 276,990 289,987 310,991 331,999 354,1012 L 381,999 492,748 772,1049 836,1024 860,1049 C 881,1039 901,1025 922,1006 886,937 835,863 770,784 769,783 710,716 594,584 L 774,223 C 774,196 753,168 711,139 L 727,119 C 717,90 699,76 672,76 641,76 570,178 457,381 L 164,-76 C 142,-110 111,-127 72,-127 30,-127 9,-110 8,-76 1,-67 -2,-52 -2,-32 -2,-23 -1,-13 0,-2 Z"/>
  </g>
  <g id="bullet-char-template-10004" transform="scale(0.00048828125,-0.00048828125)">
   <path d="M 285,-33 C 182,-33 111,30 74,156 52,228 41,333 41,471 41,549 55,616 82,672 116,743 169,778 240,778 293,778 328,747 346,684 L 369,508 C 377,444 397,411 428,410 L 1163,1116 C 1174,1127 1196,1133 1229,1133 1271,1133 1292,1118 1292,1087 L 1292,965 C 1292,929 1282,901 1262,881 L 442,47 C 390,-6 338,-33 285,-33 Z"/>
  </g>
  <g id="bullet-char-template-9679" transform="scale(0.00048828125,-0.00048828125)">
   <path d="M 813,0 C 632,0 489,54 383,161 276,268 223,411 223,592 223,773 276,916 383,1023 489,1130 632,1184 813,1184 992,1184 1136,1130 1245,1023 1353,916 1407,772 1407,592 1407,412 1353,268 1245,161 1136,54 992,0 813,0 Z"/>
  </g>
  <g id="bullet-char-template-8226" transform="scale(0.00048828125,-0.00048828125)">
   <path d="M 346,457 C 273,457 209,483 155,535 101,586 74,649 74,723 74,796 101,859 155,911 209,963 273,989 346,989 419,989 480,963 531,910 582,859 608,796 608,723 608,648 583,586 532,535 482,483 420,457 346,457 Z"/>
  </g>
  <g id="bullet-char-template-8211" transform="scale(0.00048828125,-0.00048828125)">
   <path d="M -4,459 L 1135,459 1135,606 -4,606 -4,459 Z"/>
  </g>
  <g id="bullet-char-template-61548" transform="scale(0.00048828125,-0.00048828125)">
   <path d="M 173,740 C 173,903 231,1043 346,1159 462,1274 601,1332 765,1332 928,1332 1067,1274 1183,1159 1299,1043 1357,903 1357,740 1357,577 1299,437 1183,322 1067,206 928,148 765,148 601,148 462,206 346,322 231,437 173,577 173,740 Z"/>
  </g>
 </defs>
 <g>
  <g id="id2" class="Master_Slide">
   <g id="bg-id2" class="Background"/>
   <g id="bo-id2" class="BackgroundObjects"/>
  </g>
 </g>
 <g class="SlideGroup">
  <g>
   <g id="container-id1">
    <g id="id1" class="Slide" clip-path="url(#presentation_clip_path)">
     <g class="Page">
      <g class="com.sun.star.drawing.CustomShape">
       <g id="id3">
        <rect class="BoundingBox" stroke="none" fill="none" x="0" y="0" width="2002" height="2002"/>
        <g>
         <defs>
          <linearGradient id="gradient1" x1="317" y1="-183" x2="1684" y2="2184" gradientUnits="userSpaceOnUse">
           <stop offset="0" style="stop-color:rgb(255,233,148)"/>
           <stop offset="1" style="stop-color:rgb(232,162,2)"/>
          </linearGradient>
         </defs>
         <path style="fill:url(#gradient1)" d="M 222,0 L 222,0 208,0 193,2 179,4 165,8 151,12 137,17 124,23 111,30 99,37 87,46 76,55 65,65 55,76 46,87 37,99 30,111 23,124 17,137 12,151 8,165 4,179 2,193 0,208 0,222 0,1778 0,1779 0,1793 2,1808 4,1822 8,1836 12,1850 17,1864 23,1877 30,1890 37,1902 46,1914 55,1925 65,1936 76,1946 87,1955 99,1964 111,1971 124,1978 137,1984 151,1989 165,1993 179,1997 193,1999 208,2001 222,2001 1778,2001 1779,2001 1793,2001 1808,1999 1822,1997 1836,1993 1850,1989 1864,1984 1877,1978 1890,1971 1902,1964 1914,1955 1925,1946 1936,1936 1946,1925 1955,1914 1964,1902 1971,1890 1978,1877 1984,1864 1989,1850 1993,1836 1997,1822 1999,1808 2001,1793 2001,1779 2001,222 2001,222 2001,222 2001,208 1999,193 1997,179 1993,165 1989,151 1984,137 1978,124 1971,111 1964,99 1955,87 1946,76 1936,65 1925,55 1914,46 1902,37 1890,30 1877,23 1864,17 1850,12 1836,8 1822,4 1808,2 1793,0 1779,0 222,0 Z"/>
        </g>
       </g>
      </g>
      <g class="Group">
       <g class="com.sun.star.drawing.CustomShape">
        <g id="id4">
         <rect class="BoundingBox" stroke="none" fill="none" x="1360" y="175" width="467" height="467"/>
         <g>
          <defs>
           <linearGradient id="gradient2" x1="1385" y1="200" x2="1801" y2="616" gradientUnits="userSpaceOnUse">
            <stop offset="0" style="stop-color:rgb(255,109,109)"/>
            <stop offset="1" style="stop-color:rgb(167,7,75)"/>
           </linearGradient>
          </defs>
          <path style="fill:url(#gradient2)" d="M 1709,524 L 1617,616 1385,384 1569,200 1801,432 1709,524 Z"/>
         </g>
         <path fill="none" stroke="rgb(134,17,65)" stroke-width="50" stroke-linejoin="round" d="M 1709,524 L 1617,616 1385,384 1569,200 1801,432 1709,524 Z"/>
        </g>
       </g>
       <g class="com.sun.star.drawing.CustomShape">
        <g id="id5">
         <rect class="BoundingBox" stroke="none" fill="none" x="388" y="543" width="1069" height="1069"/>
         <path fill="rgb(255,255,166)" stroke="none" d="M 1037,1193 L 644,1585 413,1354 1200,568 1431,800 1037,1193 Z"/>
         <path fill="none" stroke="rgb(123,61,0)" stroke-width="50" stroke-linejoin="round" d="M 1037,1193 L 644,1585 413,1354 1200,568 1431,800 1037,1193 Z"/>
        </g>
       </g>
       <g class="com.sun.star.drawing.LineShape">
        <g id="id6">
         <rect class="BoundingBox" stroke="none" fill="none" x="556" y="695" width="886" height="886"/>
         <path fill="none" stroke="rgb(255,151,47)" stroke-width="100" stroke-linejoin="round" d="M 606,1530 L 1391,745"/>
        </g>
       </g>
       <g class="com.sun.star.drawing.LineShape">
        <g id="id7">
         <rect class="BoundingBox" stroke="none" fill="none" x="500" y="633" width="886" height="886"/>
         <path fill="none" stroke="rgb(255,182,108)" stroke-width="100" stroke-linejoin="round" d="M 550,1468 L 1335,683"/>
        </g>
       </g>
       <g class="com.sun.star.drawing.PolyPolygonShape">
        <g id="id8">
         <rect class="BoundingBox" stroke="none" fill="none" x="196" y="1329" width="476" height="475"/>
         <g>
          <defs>
           <linearGradient id="gradient3" x1="222" y1="1354" x2="646" y2="1778" gradientUnits="userSpaceOnUse">
            <stop offset="0" style="stop-color:rgb(255,255,215)"/>
            <stop offset="1" style="stop-color:rgb(255,182,108)"/>
           </linearGradient>
          </defs>
          <path style="fill:url(#gradient3)" d="M 414,1354 L 607,1546 646,1585 222,1778 414,1354 Z"/>
         </g>
         <path fill="none" stroke="rgb(123,61,0)" stroke-width="50" stroke-linejoin="round" d="M 414,1354 L 607,1546 646,1585 222,1778 414,1354 Z"/>
        </g>
       </g>
       <g class="com.sun.star.drawing.PolyPolygonShape">
        <g id="id9">
         <rect class="BoundingBox" stroke="none" fill="none" x="259" y="1553" width="192" height="192"/>
         <path fill="rgb(0,0,0)" stroke="none" d="M 346,1553 L 433,1640 450,1657 259,1744 346,1553 Z"/>
        </g>
       </g>
       <g class="com.sun.star.drawing.CustomShape">
        <g id="id10">
         <rect class="BoundingBox" stroke="none" fill="none" x="1174" y="358" width="465" height="468"/>
         <g>
          <defs>
           <linearGradient id="gradient4" x1="1198" y1="385" x2="1612" y2="799" gradientUnits="userSpaceOnUse">
            <stop offset="0" style="stop-color:rgb(221,221,221)"/>
            <stop offset="1" style="stop-color:rgb(128,128,128)"/>
           </linearGradient>
          </defs>
          <path style="fill:url(#gradient4)" d="M 1520,707 L 1428,800 1199,569 1383,384 1612,615 1520,707 Z"/>
         </g>
         <path fill="none" stroke="rgb(51,51,51)" stroke-width="50" stroke-linejoin="round" d="M 1520,707 L 1428,800 1199,569 1383,384 1612,615 1520,707 Z"/>
        </g>
       </g>
      </g>
     </g>
    </g>
   </g>
  </g>
 </g>
</svg>