<?xml version="1.0" encoding="UTF-8"?>
<!DOCTYPE svg PUBLIC "-//W3C//DTD SVG 1.1//EN" "http://www.w3.org/Graphics/SVG/1.1/DTD/svg11.dtd">
<svg version="1.2" width="20mm" height="20mm" viewBox="0 0 2000 2000" preserveAspectRatio="xMidYMid" fill-rule="evenodd" stroke-width="28.222" stroke-linejoin="round" xmlns="http://www.w3.org/2000/svg" xmlns:ooo="http://xml.openoffice.org/svg/export" xmlns:xlink="http://www.w3.org/1999/xlink" xmlns:presentation="http://sun.com/xmlns/staroffice/presentation" xmlns:smil="http://www.w3.org/2001/SMIL20/" xmlns:anim="urn:oasis:names:tc:opendocument:xmlns:animation:1.0" xmlns:svg="urn:oasis:names:tc:opendocument:xmlns:svg-compatible:1.0" xml:space="preserve">
 <defs class="ClipPathGroup">
  <clipPath id="presentation_clip_path" clipPathUnits="userSpaceOnUse">
   <rect x="0" y="0" width="2000" height="2000"/>
  </clipPath>
  <clipPath id="presentation_clip_path_shrink" clipPathUnits="userSpaceOnUse">
   <rect x="2" y="2" width="1996" height="1996"/>
  </clipPath>
 </defs>
 <defs class="TextShapeIndex">
  <g ooo:slide="id1" ooo:id-list="id3 id4"/>
 </defs>
 <defs class="EmbeddedBulletChars">
  <g id="bullet-char-template-57356" transform="scale(0.00048828125,-0.00048828125)">
   <path d="M 580,1141 L 1163,571 580,0 -4,571 580,1141 Z"/>
  </g>
  <g id="bullet-char-template-57354" transform="scale(0.00048828125,-0.00048828125)">
   <path d="M 8,1128 L 1137,1128 1137,0 8,0 8,1128 Z"/>
  </g>
  <g id="bullet-char-template-10146" transform="scale(0.00048828125,-0.00048828125)">
   <path d="M 174,0 L 602,739 174,1481 1456,739 174,0 Z M 1358,739 L 309,1346 659,739 1358,739 Z"/>
  </g>
  <g id="bullet-char-template-10132" transform="scale(0.00048828125,-0.00048828125)">
   <path d="M 2015,739 L 1276,0 717,0 1260,543 174,543 174,936 1260,936 717,1481 1274,1481 2015,739 Z"/>
  </g>
  <g id="bullet-char-template-10007" transform="scale(0.00048828125,-0.00048828125)">
   <path d="M 0,-2 C -7,14 -16,27 -25,37 L 356,567 C 262,823 215,952 215,954 215,979 228,992 255,992 264,992 276,990 289,987 310,991 331,999 354,1012 L 381,999 492,748 772,1049 836,1024 860,1049 C 881,1039 901,1025 922,1006 886,937 835,863 770,784 769,783 710,716 594,584 L 774,223 C 774,196 753,168 711,139 L 727,119 C 717,90 699,76 672,76 641,76 570,178 457,381 L 164,-76 C 142,-110 111,-127 72,-127 30,-127 9,-110 8,-76 1,-67 -2,-52 -2,-32 -2,-23 -1,-13 0,-2 Z"/>
  </g>
  <g id="bullet-char-template-10004" transform="scale(0.00048828125,-0.00048828125)">
   <path d="M 285,-33 C 182,-33 111,30 74,156 52,228 41,333 41,471 41,549 55,616 82,672 116,743 169,778 240,778 293,778 328,747 346,684 L 369,508 C 377,444 397,411 428,410 L 1163,1116 C 1174,1127 1196,1133 1229,1133 1271,1133 1292,1118 1292,1087 L 1292,965 C 1292,929 1282,901 1262,881 L 442,47 C 390,-6 338,-33 285,-33 Z"/>
  </g>
  <g id="bullet-char-template-9679" transform="scale(0.00048828125,-0.00048828125)">
   <path d="M 813,0 C 632,0 489,54 383,161 276,268 223,411 223,592 223,773 276,916 383,1023 489,1130 632,1184 813,1184 992,1184 1136,1130 1245,1023 1353,916 1407,772 1407,592 1407,412 1353,268 1245,161 1136,54 992,0 813,0 Z"/>
  </g>
  <g id="bullet-char-template-8226" transform="scale(0.00048828125,-0.00048828125)">
   <path d="M 346,457 C 273,457 209,483 155,535 101,586 74,649 74,723 74,796 101,859 155,911 209,963 273,989 346,989 419,989 480,963 531,910 582,859 608,796 608,723 608,648 583,586 532,535 482,483 420,457 346,457 Z"/>
  </g>
  <g id="bullet-char-template-8211" transform="scale(0.00048828125,-0.00048828125)">
   <path d="M -4,459 L 1135,459 1135,606 -4,606 -4,459 Z"/>
  </g>
  <g id="bullet-char-template-61548" transform="scale(0.00048828125,-0.00048828125)">
   <path d="M 173,740 C 173,903 231,1043 346,1159 462,1274 601,1332 765,1332 928,1332 1067,1274 1183,1159 1299,1043 1357,903 1357,740 1357,577 1299,437 1183,322 1067,206 928,148 765,148 601,148 462,206 346,322 231,437 173,577 173,740 Z"/>
  </g>
 </defs>
 <g>
  <g id="id2" class="Master_Slide">
   <g id="bg-id2" class="Background"/>
   <g id="bo-id2" class="BackgroundObjects"/>
  </g>
 </g>
 <g class="SlideGroup">
  <g>
   <g id="container-id1">
    <g id="id1" class="Slide" clip-path="url(#presentation_clip_path)">
     <g class="Page">
      <g class="com.sun.star.drawing.CustomShape">
       <g id="id3">
        <rect class="BoundingBox" stroke="none" fill="none" x="1" y="1" width="2002" height="2002"/>
        <g>
         <defs>
          <linearGradient id="gradient1" x1="318" y1="-182" x2="1685" y2="2185" gradientUnits="userSpaceOnUse">
           <stop offset="0" style="stop-color:rgb(114,159,207)"/>
           <stop offset="1" style="stop-color:rgb(53,82,105)"/>
          </linearGradient>
         </defs>
         <path style="fill:url(#gradient1)" d="M 600,1 L 601,1 562,2 523,6 484,13 446,21 408,33 372,47 336,63 301,81 268,102 236,125 205,150 177,177 150,205 125,236 102,268 81,301 63,336 47,372 33,408 21,446 13,484 6,523 2,562 1,601 1,1402 1,1402 2,1441 6,1480 13,1519 21,1557 33,1595 47,1631 63,1667 81,1702 102,1735 125,1767 150,1798 177,1826 205,1853 236,1878 268,1901 301,1922 336,1940 372,1956 408,1970 446,1982 484,1990 523,1997 562,2001 601,2002 1402,2002 1402,2002 1441,2001 1480,1997 1519,1990 1557,1982 1595,1970 1631,1956 1667,1940 1702,1922 1735,1901 1767,1878 1798,1853 1826,1826 1853,1798 1878,1767 1901,1735 1922,1702 1940,1667 1956,1631 1970,1595 1982,1557 1990,1519 1997,1480 2001,1441 2002,1402 2002,600 2002,601 2002,601 2001,562 1997,523 1990,484 1982,446 1970,408 1956,372 1940,336 1922,301 1901,268 1878,236 1853,205 1826,177 1798,150 1767,125 1735,102 1702,81 1667,63 1631,47 1595,33 1557,21 1519,13 1480,6 1441,2 1402,1 600,1 Z"/>
        </g>
       </g>
      </g>
      <g class="com.sun.star.drawing.CustomShape">
       <g id="id4">
        <rect class="BoundingBox" stroke="none" fill="none" x="511" y="350" width="1033" height="1263"/>
        <path fill="rgb(255,255,255)" stroke="none" d="M 816,1401 L 1079,1401 1076,1612 813,1612 816,1401 Z M 1073,1278 L 826,1278 828,1151 828,1130 831,1111 834,1092 838,1074 844,1058 849,1042 857,1027 866,1013 877,1000 889,985 905,970 923,955 943,938 966,922 992,905 1019,888 1137,814 1155,802 1173,792 1187,782 1202,771 1215,761 1227,751 1236,740 1246,731 1254,721 1261,711 1267,701 1271,691 1275,681 1278,671 1279,661 1279,651 1278,633 1277,624 1274,616 1272,608 1268,599 1264,591 1259,585 1254,577 1247,570 1240,563 1234,556 1224,549 1216,543 1196,531 1175,521 1151,511 1125,504 1099,497 1069,492 1038,488 1006,486 972,486 947,486 920,487 893,490 866,492 839,497 811,502 783,508 753,515 723,523 695,531 634,550 573,573 511,599 513,443 544,432 574,421 605,411 636,402 667,393 698,386 729,379 760,373 791,368 824,362 856,359 888,356 921,353 953,351 986,350 1020,350 1078,350 1133,355 1185,361 1235,369 1280,381 1302,387 1323,395 1345,403 1363,411 1382,421 1401,430 1418,441 1434,451 1450,462 1463,473 1477,486 1489,498 1499,510 1508,523 1516,537 1524,551 1529,565 1534,579 1538,595 1541,610 1543,642 1541,658 1540,673 1536,689 1530,704 1523,719 1515,733 1505,748 1494,763 1482,777 1467,792 1449,808 1430,823 1408,839 1384,857 1330,891 1215,962 1186,981 1162,997 1143,1012 1134,1018 1128,1024 1121,1029 1115,1035 1110,1040 1106,1045 1100,1050 1098,1055 1094,1061 1091,1066 1089,1070 1087,1075 1084,1086 1082,1097 1079,1109 1078,1123 1076,1138 1074,1177 1073,1278 Z"/>
       </g>
      </g>
     </g>
    </g>
   </g>
  </g>
 </g>
</svg>